<svg xmlns="http://www.w3.org/2000/svg" fill="none" viewBox="112 347 150 137.52">
<path d="M262 369.43C262 357.03 251.818 347 239.231 347C230.172 347 222.396 352.134 218.708 359.636C209.247 354.187 198.184 351.107 186.479 351.107C175.095 351.107 164.352 354.029 155.052 359.163C151.284 351.897 143.587 347 134.769 347C122.182 347 112 357.03 112 369.43C112 379.144 118.253 387.358 126.992 390.517C123.945 397.862 122.342 405.838 122.342 414.21V444.695C122.342 449.829 125.709 454.094 130.359 455.594C131.482 455.989 132.764 456.147 134.047 456.147H137.013V455.515C137.013 459.701 140.461 463.097 144.71 463.097H152.887V410.972H144.63C140.381 410.972 136.933 414.368 136.933 418.554V419.343H133.967C132.684 419.343 131.482 419.58 130.279 419.896V414.21C130.279 406.233 131.963 398.651 135.089 391.859C139.739 381.434 147.596 372.747 157.377 366.902C165.875 361.848 175.816 358.926 186.399 358.926C197.462 358.926 207.804 362.085 216.463 367.534C225.763 373.379 233.138 381.829 237.708 391.78C240.835 398.651 242.518 406.233 242.518 414.21V419.896C241.396 419.501 240.113 419.343 238.831 419.343H234.902V418.554C234.902 414.368 231.455 410.972 227.206 410.972H218.948V463.255H227.206C231.455 463.255 234.902 459.859 234.902 455.673V456.305H238.831C240.113 456.305 241.316 456.068 242.518 455.752C247.168 454.252 250.536 449.908 250.536 444.853V430.953V414.368C250.536 406.154 248.932 398.256 246.046 390.991C255.346 388.068 262 379.539 262 369.43Z" fill="#DB2C4D"/>
<path d="M207.081 476.839C207.001 477.471 206.6 478.103 206.039 478.419C192.41 486.869 179.743 486.238 167.957 478.419C167.316 478.024 166.995 477.313 166.995 476.602C166.995 475.102 168.438 473.996 169.962 474.47C172.768 475.339 175.493 476.049 178.219 476.523C180.705 476.997 183.03 475.102 183.03 472.653V469.652C183.03 467.915 181.907 466.414 180.224 465.861C174.852 464.124 171.164 460.412 171.164 456.226C171.164 450.303 178.46 445.485 187.439 445.485C196.418 445.485 203.714 450.303 203.714 456.226C203.714 460.649 199.625 464.519 193.772 466.098C192.089 466.572 190.886 468.152 190.886 469.889V473.443C190.886 475.891 193.051 477.708 195.536 477.392C198.583 476.997 201.549 476.128 204.355 474.944C204.596 474.786 204.916 474.786 205.157 474.786C206.199 474.707 207.161 475.655 207.081 476.839Z" fill="#DB2C4D"/>
</svg>